<?xml version="1.0" encoding="UTF-8"?>
<svg width="128px" height="40px" viewBox="0 0 128 40" version="1.1" xmlns="http://www.w3.org/2000/svg" xmlns:xlink="http://www.w3.org/1999/xlink">
    <title>qgen</title>
    <g id="Page-1" stroke="none" stroke-width="1" fill="none" fill-rule="evenodd">
        <path d="M6.86804378,27.0343587 C3.02181009,27.0343587 0,23.4081866 0,19.4521528 C0,14.0677947 1.97824758,7.96881307 6.04362017,3.90482452 C8.29636806,1.70697669 10.8785163,0.553152717 13.6807262,0.553152717 C16.9774979,0.553152717 19.5047461,2.31133871 20.3291697,6.04731094 L20.8237316,6.04731094 L23.0783249,0.331245747 L29.0121449,0.331245747 L25.2208113,9.67163766 L20.880477,32.4182554 L20.9353771,32.638317 L25.001211,34.1764414 L24.2870489,38.3520755 L9.89308328,38.3520755 L10.772407,33.2422177 L14.893141,33.2422177 L14.948041,33.0221561 L16.3782107,25.1105498 L19.4549208,13.9570718 L18.7407587,13.9570718 C14.7796501,20.6055154 10.3295157,27.0343587 6.86804378,27.0343587 L6.86804378,27.0343587 Z M13.2964257,4.8897962 C12.2524019,4.8897962 11.0985779,5.16660323 10.604016,5.6588584 C8.46106824,7.80180617 6.04362017,15.3840121 6.04362017,19.6694463 C6.04362017,20.9879704 9.06543026,22.0319943 10.3844158,22.0319943 C11.153478,22.0319943 16.4280359,15.1090504 18.5709837,10.604016 C19.1204457,9.5050921 19.5601075,8.35126812 19.5601075,7.80180617 C19.5601075,7.25234421 14.8899115,4.89164158 13.2978098,4.89164158 L13.2964257,4.8897962 Z M35.5475589,17.3087436 C32.2507872,17.3087436 31.2616634,16.155381 31.2616634,13.1331096 C31.2616634,10.1108381 32.3056872,8.95747552 35.5475589,8.95747552 C38.8443306,8.95747552 39.6682929,10.1108381 39.6682929,13.1331096 C39.6682929,16.1000196 38.7894306,17.3087436 35.5475589,17.3087436 Z M65.7661211,5.44110354 L65.656321,5.93566543 C66.4669188,6.78641118 66.9531486,7.89471465 67.0302066,9.06727564 C67.0302066,13.1880096 61.8105487,19.0669296 55.2723666,19.0669296 C53.9187556,19.0380163 52.5729502,18.8536531 51.2614327,18.5174677 C50.2000759,19.032695 49.5047353,20.0863217 49.4483467,21.2647775 C49.4483467,22.5284016 50.8222322,23.0229634 53.9538424,23.5715027 L58.7338385,24.3959263 C64.173558,25.3301501 65.8763826,26.9794586 65.8763826,30.549808 C65.8763826,36.5934281 60.6567247,40 50.6021706,40 C42.2518252,40 38.2381232,37.8570522 38.2381232,32.6927557 C38.2381232,29.1214837 41.4799949,27.3083976 46.259991,27.033436 L46.259991,26.429074 C44.7218666,25.6046504 43.7327428,24.4508264 43.7327428,22.692179 C43.7327428,20.2198309 45.5458289,18.516545 49.226901,18.1866833 L49.226901,17.6921214 C46.809453,16.6480975 44.6134505,14.5600498 44.6134505,10.9887778 C44.6134505,5.22196464 49.6684082,0 57.0310139,0 C59.7772242,0.0612230652 62.4917697,0.600447836 65.0528817,1.59348581 L72.2498645,2.0880477 L70.8759789,7.41750574 L65.7661211,5.44110354 Z M54.9425049,28.9572448 C53.4588192,28.6278445 50.1625088,28.0234825 48.3489614,27.5270752 C45.9864134,28.4059375 43.5140653,30.274385 43.5140653,31.8674094 C43.5140653,35.1641812 47.5798992,36.3180051 53.2392189,36.3180051 C58.3490767,36.3180051 60.6567247,35.3288814 60.6567247,32.8016332 C60.6567247,30.7703309 59.6676009,30.0557074 54.9425049,28.9567835 L54.9425049,28.9572448 Z M53.843581,3.4633173 C53.2432033,3.49949913 52.6766359,3.75342105 52.2500952,4.17747944 C51.3712328,5.05634176 50.4919092,9.28733723 50.4919092,12.6934477 C50.4919092,14.8912956 51.2609714,15.8804194 51.7006332,16.3196199 C51.9774402,16.5964269 52.9642573,16.7592817 53.6235194,16.7592817 C55.3664179,16.7041788 57.0200913,15.9755702 58.2369699,14.7265954 C60.3245562,12.6385477 61.863142,9.17707576 61.863142,6.75962769 C61.8654487,5.66070378 56.5908907,3.46377865 53.843581,3.46377865 L53.843581,3.4633173 Z M77.3583382,18.9022294 C77.3583382,20.9353771 80.9845103,23.0778635 82.0285342,23.0778635 C83.017658,23.0778635 88.1275158,19.7261917 91.6987878,17.6935054 L92.3580499,18.2978674 C89.2813397,23.7920257 84.8842601,27.0338973 80.65511,27.0338973 C76.9740378,27.0338973 71.259818,23.4626253 71.259818,18.1880673 C71.259818,8.29821344 78.4568008,0.0572067864 86.2595297,0.0572067864 C91.863488,0.0572067864 95.3254213,2.64073907 95.3254213,5.33176476 C95.3254213,9.83726053 91.1497872,10.9357231 77.4685997,17.1421981 C77.3973075,17.7262002 77.3604899,18.3138959 77.3583382,18.9022294 Z M78.1274004,14.8363955 C86.6433687,9.89169925 89.3911399,8.95747552 89.3911399,6.92478922 C89.3911399,5.82586531 86.2041683,3.79271767 83.6769201,3.79271767 C83.3217171,3.85619012 82.995239,4.02910733 82.7431577,4.28727956 C81.0398717,6.04546555 78.4023621,10.2759997 77.4685997,14.8363955 L78.1274004,14.8363955 Z M119.719041,27.0343587 C118.840179,27.0343587 114.719445,25.4957729 114.719445,25.001211 C114.719445,23.7375869 116.477631,19.2343979 117.466754,15.8804194 C118.291178,13.2429097 119.829302,8.95747552 119.829302,7.91345167 C119.829302,7.08948941 116.752592,5.27640335 115.763468,5.27640335 C113.565621,5.27640335 110.873211,8.73649124 107.027438,18.3527675 L105.324153,26.2080897 L98.2365085,26.4848967 L100.820041,17.7484055 L103.072789,6.2650658 L102.908089,5.98825877 L97.2487688,7.85624488 L96.5346066,7.25188286 C98.5123929,3.68061082 101.809165,0.0549000611 104.776075,0.0549000611 C106.206244,0.0549000611 109.33647,1.42832428 109.33647,1.97778624 C109.33647,3.29631039 108.183108,7.4724058 106.479361,12.3073019 L107.248423,12.3073019 C109.720771,8.29636806 112.13868,4.28543418 114.116467,2.25274789 C115.984453,0.384761773 117.853361,0.0549000611 119.995387,0.0549000611 C122.137412,0.0549000611 126.093907,2.91200997 126.093907,4.83489614 C126.093907,6.42838195 125.489545,8.46106824 124.775383,10.4942159 L121.259011,21.2084934 L121.423711,21.4853004 L127.302631,19.3423526 L127.961893,19.9467146 C126.038084,23.5175253 122.685951,27.0343587 119.719041,27.0343587 Z" id="qgen" fill="#FF4500"></path>
    </g>
</svg>